<svg width="245" height="245" viewBox="0 0 245 245" fill="none" xmlns="http://www.w3.org/2000/svg">
<mask id="mask0" mask-type="alpha" maskUnits="userSpaceOnUse" x="33" y="25" width="177" height="185">
<path d="M70.0969 164.47C54.4397 145.849 46.1072 121.17 53.4756 104.846C60.8451 88.5536 83.9164 53.313 104.948 42.9226C125.947 32.5333 143.463 56.4025 161.14 59.5914C178.818 62.7803 184.713 76.2463 188.739 96.9765C192.766 117.707 196.336 136.359 182.813 155.728C169.257 175.13 150.553 191.69 129.661 193.673C108.802 195.687 85.7878 183.123 70.0969 164.47Z" fill="#16A7D3"/>
</mask>
<g mask="url(#mask0)">
<path d="M70.0969 164.47C54.4397 145.849 46.1072 121.17 53.4756 104.846C60.845 88.5536 83.9165 80.6476 104.948 70.2572C125.947 59.8679 143.463 56.4025 161.14 59.5914C178.818 62.7803 184.713 76.2463 188.739 96.9765C192.766 117.707 196.336 136.359 182.813 155.728C169.257 175.13 150.553 191.69 129.661 193.673C108.802 195.687 85.7878 183.123 70.0969 164.47Z" fill="#7DBCE8"/>
<path d="M157.124 248.241C156.449 243.469 153.95 231.05 153.326 226.252C152.251 217.907 151.302 209.511 150.577 201.14C149.078 183.999 149.303 166.782 148.178 149.616C147.304 136.198 151.527 123.254 142.506 112.735C140.707 110.661 138.308 108.762 135.51 107.138C135.335 102.34 134.085 98.0672 129.838 94.8938C124.29 90.7459 116.669 89.2217 109.923 88.622C105.25 88.2222 95.9798 86.7979 92.5065 90.7959C89.1832 94.6439 88.6835 102.69 88.5835 108.187C87.7839 108.812 87.0593 109.461 86.3596 110.161C76.0648 116.333 69.743 127.352 66.0699 138.822C63.3463 147.367 61.872 156.238 59.3983 164.858C57.1494 172.754 53.1514 180.7 54.2509 189.146C55.7751 200.765 66.3698 207.712 77.2892 206.962C77.3892 219.681 77.5141 230.3 77.5641 235.673C77.5891 240.12 77.739 244.568 77.9889 249.016C78.2138 253.064 77.839 258.236 79.1133 262.134C81.1623 268.431 90.2827 266.632 95.3051 266.532C115.795 266.107 136.134 262.859 155.775 257.112C157.823 256.512 157.424 250.415 157.124 248.241Z" fill="#EB934D"/>
<path d="M101.702 74.479C103.176 84.424 113.921 102.09 126.04 93.7693C131.237 90.1961 132.611 83.2246 133.211 77.3526C133.811 71.5055 133.736 65.6085 132.186 58.8869C132.012 58.0873 130.937 57.8624 130.512 57.1628C130.162 56.613 129.738 56.2382 129.288 55.9634C127.839 53.7395 125.54 52.1653 122.416 51.6905C116.694 50.841 109.748 52.8899 105.625 57.0128C101.177 61.4606 100.852 68.632 101.702 74.479Z" fill="#995B4E"/>
<path d="M120.852 81.3718L103.762 81.5793L104.038 104.266L121.128 104.058L120.852 81.3718Z" fill="#995B4E"/>
<path d="M172.541 168.781C169.818 157.387 160.147 148.966 155.7 138.247C151.727 128.677 148.928 118.532 141.157 111.21C139.058 109.236 135.91 112.36 137.984 114.384C142.931 119.156 145.705 125.128 148.153 131.375C147.879 131.375 147.629 131.425 147.379 131.525C146.904 130.726 146.454 129.926 145.98 129.151C145.13 127.802 143.656 127.852 142.681 128.577C141.157 128.202 139.383 129.276 140.008 131.225C140.707 133.374 141.407 135.523 142.132 137.672C140.682 136.548 138.034 138.097 138.583 140.171C140.108 145.968 141.932 151.665 144.081 157.262C143.606 157.287 143.131 157.512 142.706 157.987C141.557 159.286 141.482 160.685 141.832 162.085C140.232 161.36 138.233 163.034 138.783 164.783C140.482 170.081 142.381 175.278 145.83 179.401C146.03 179.676 146.204 179.951 146.404 180.225C144.855 178.951 143.506 177.527 142.506 176.128C140.832 173.779 136.934 176.028 138.608 178.401C143.681 185.598 153.051 191.645 162.221 189.421C171.317 187.247 174.49 176.977 172.541 168.781Z" fill="#EB934D"/>
<path d="M130.287 102.84C130.063 102.09 129.513 101.565 128.838 101.316C128.738 100.616 128.313 99.9913 127.739 99.5915C127.964 98.9168 128.039 98.2172 127.789 97.4676C127.389 96.1932 125.69 95.1937 124.465 96.1183C120.517 99.0168 117.619 102.74 114.945 106.763C113.496 102.24 111.222 98.0923 108.074 94.4441C104.8 90.646 100.603 86.823 95.4301 89.2717C92.8065 90.5211 95.1053 94.2942 97.679 93.1448C98.7035 92.695 99.8529 93.0198 100.977 93.7445C100.178 94.0943 99.603 94.8689 99.653 95.8434C98.4286 96.0433 97.4541 97.1427 97.8289 98.542C97.0793 99.1917 96.7295 100.241 97.4291 101.266C100.153 105.364 102.776 111.585 107.524 113.584C109.873 114.559 111.622 110.486 109.273 109.462C109.098 109.387 108.923 109.287 108.748 109.187C109.023 108.687 109.098 108.087 108.848 107.537C108.898 107.512 108.973 107.512 109.023 107.463C109.948 108.887 110.822 110.336 111.697 111.81C112.097 112.485 112.671 112.81 113.271 112.885C113.546 114.359 115.32 114.984 116.644 114.334C116.694 114.309 116.719 114.284 116.744 114.259C117.319 115.134 118.394 115.608 119.618 114.859C120.118 114.559 120.517 114.209 120.892 113.859C121.592 114.609 122.716 114.959 123.666 114.309C125.865 112.785 126.814 110.286 128.888 108.687C129.688 108.062 129.738 107.113 129.363 106.288C130.088 105.239 130.712 104.189 130.287 102.84Z" fill="#EB934D"/>
<path d="M129.988 161.01L117.819 160.585C117.569 160.585 117.394 160.361 117.394 160.136L118.268 135.398C118.268 135.148 118.493 134.973 118.718 134.973L130.887 135.398C131.137 135.398 131.312 135.623 131.312 135.848L130.437 160.585C130.437 160.835 130.212 161.01 129.988 161.01Z" fill="#182149"/>
<path d="M153.151 163.959C151.202 160.835 149.278 157.562 147.029 154.664C146.054 153.414 134.135 148.891 132.711 148.342C127.839 146.493 124.965 145.718 121.267 145.818C119.693 145.868 116.17 146.568 115.795 148.417C115.72 148.741 115.945 149.166 116.345 149.141C119.343 148.816 121.842 148.392 124.815 149.441C125.615 149.741 126.414 150.041 127.214 150.366C125.04 149.766 122.841 149.191 120.692 149.266C119.618 149.316 115.495 149.966 115.645 151.64C115.82 153.464 119.768 152.515 120.742 152.59C122.092 152.69 123.416 152.964 124.74 153.264C123.716 153.139 122.666 153.039 121.567 153.014C120.317 152.989 118.543 152.914 117.769 153.564C117.394 153.864 116.969 154.539 117.544 155.038C118.169 155.588 118.718 155.713 119.093 155.788C118.593 155.913 118.194 156.163 118.094 156.638C117.819 158.162 120.667 158.462 121.517 158.612C124.216 159.086 130.537 161.26 131.862 161.685C135.035 162.709 138.408 161.985 141.707 161.835C143.006 162.06 144.23 162.634 145.43 163.309C145.58 163.459 145.73 163.609 145.88 163.734C145.905 163.759 145.93 163.759 145.955 163.784C146.204 164.009 146.429 164.209 146.679 164.459C147.954 165.708 149.078 167.257 150.627 168.182C151.227 168.531 151.702 167.757 151.327 167.282L150.852 166.657C151.177 166.682 151.427 166.358 151.427 166.033C151.502 166.083 151.577 166.108 151.627 166.158C151.976 166.358 152.326 166.158 152.451 165.808C152.601 165.458 152.501 165.033 152.301 164.583C152.651 165.058 153.501 164.534 153.151 163.959Z" fill="#995B4E"/>
<path d="M152.501 159.461C152.551 158.712 152.601 157.962 152.601 157.212C152.626 156.038 151.926 155.338 151.052 155.113C151.077 154.764 151.127 154.439 151.152 154.089C151.302 152.415 149.728 151.69 148.378 151.99C148.428 151.09 148.453 150.216 148.453 149.341C148.378 146.468 143.906 146.443 143.956 149.341C144.105 156.638 140.932 164.709 138.658 171.58C137.734 174.354 142.081 175.528 143.031 172.779C143.256 172.13 143.481 171.505 143.706 170.855C144.13 171.305 144.705 171.63 145.33 171.705C145.255 173.004 146.579 174.304 147.879 174.054C148.128 176.003 150.852 176.927 152.076 174.953C152.901 173.629 153.551 172.28 154.1 170.88C154.625 170.531 154.975 169.931 154.925 169.081C154.9 168.806 154.9 168.532 154.875 168.257C154.825 167.532 154.5 166.982 154.05 166.583C154.375 165.183 154.675 163.784 155 162.385C155.375 160.785 153.851 159.436 152.501 159.461Z" fill="#EB934D"/>
<path d="M132.386 56.3133C129.213 52.2154 124.765 50.2414 119.718 49.8416C109.448 49.017 98.4536 53.4398 98.7784 64.884C98.9033 68.9069 101.402 80.8759 102.377 82.3501C103.751 84.4241 103.851 84.9488 105.225 82.9748C105.7 82.3251 104.875 79.9264 108.124 76.628C108.823 75.9284 113.296 73.7295 113.971 72.8799C117.844 68.1573 121.667 67.1578 127.439 66.5331C129.413 66.3082 131.512 66.3582 133.036 64.859C135.635 62.3103 134.285 58.7871 132.386 56.3133Z" fill="#182149"/>
<path d="M127.864 109.586C123.216 113.959 117.994 118.807 111.247 119.031C105.325 119.231 98.5036 114.359 94.4557 110.336C93.931 109.836 93.1564 110.611 93.6561 111.135C96.1798 113.659 99.2283 115.608 102.302 117.407C105.075 119.056 107.949 120.256 111.222 120.156C118.294 119.906 123.766 114.958 128.638 110.386C129.188 109.886 128.389 109.086 127.864 109.586ZM148.828 182.649C145.955 181.725 143.731 179.101 143.581 176.003C143.481 173.804 144.73 172.13 145.18 170.081C145.68 167.832 144.73 165.333 142.182 165.158C141.457 165.108 141.457 166.233 142.182 166.283C146.18 166.532 143.156 171.78 142.681 173.629C142.306 175.078 142.356 176.552 142.781 177.977C143.631 180.775 145.73 182.824 148.478 183.724C149.228 183.949 149.528 182.874 148.828 182.649ZM165.145 154.988C162.821 152.614 159.648 150.116 156.249 149.591C155.05 149.416 153.901 149.516 152.851 150.141C152.301 150.466 151.952 150.965 151.477 151.39C150.952 151.865 150.402 152.215 149.853 152.465C149.078 148.641 147.104 145.368 145.055 142.045C142.381 137.722 140.208 133.274 138.583 128.452C138.358 127.777 137.259 128.052 137.509 128.752C138.958 133.049 140.807 137.147 143.131 141.02C145.405 144.818 147.929 148.417 148.803 152.789C147.779 152.989 146.729 152.789 145.605 152.165C144.98 151.815 144.405 152.789 145.03 153.139C146.329 153.864 147.729 154.164 149.078 153.939C149.328 154.214 149.828 154.064 150.003 153.714C150.577 153.514 151.152 153.189 151.677 152.764C152.976 151.74 153.126 150.665 155.35 150.615C156.574 150.59 157.849 151.165 158.923 151.69C160.997 152.714 162.796 154.114 164.395 155.763C164.845 156.313 165.645 155.513 165.145 154.988ZM96.8045 184.148C94.9554 191.595 94.4057 199.216 95.1803 206.862C95.2553 207.587 96.3797 207.587 96.3048 206.862C95.5302 199.316 96.0549 191.82 97.9039 184.448C98.0539 183.749 96.9794 183.449 96.8045 184.148ZM133.411 181.1C136.11 188.821 137.484 196.817 137.534 205.013C137.534 205.738 138.658 205.738 138.658 205.013C138.608 196.742 137.234 188.621 134.51 180.8C134.261 180.126 133.186 180.4 133.411 181.1ZM95.4552 183.849C95.4802 180.625 95.0054 176.078 91.0324 175.478C89.2833 175.203 87.6341 176.053 86.01 176.527C81.8871 177.752 79.8631 175.303 78.064 172.03C77.9391 171.805 77.7392 171.73 77.5393 171.755C77.6892 171.53 77.8641 171.28 78.014 171.03C79.3633 168.756 79.5882 166.233 79.8881 163.659C80.3129 159.811 81.5622 156.338 83.1614 152.814C86.6347 145.068 91.6571 132.799 82.3118 126.877C81.6872 126.478 81.1374 127.452 81.7371 127.852C91.932 134.299 83.7111 147.942 80.6377 155.838C79.7631 158.087 79.1384 160.361 78.8386 162.734C78.4138 166.108 78.1889 169.106 75.99 171.905C72.192 176.727 66.9946 180.8 62.5468 185.048C62.0221 185.548 62.8217 186.347 63.3464 185.848C66.12 183.199 68.8686 180.575 71.6422 177.927C73.4663 176.178 75.4653 174.478 77.0145 172.454C77.0145 172.504 77.0395 172.554 77.0645 172.604C78.5138 175.228 80.3878 178.152 83.7361 178.127C85.4602 178.127 87.0344 177.227 88.6586 176.802C93.5312 175.578 94.3308 180.2 94.3058 183.824C94.3308 184.573 95.4552 184.573 95.4552 183.849ZM89.983 205.163C87.1094 206.987 83.961 208.136 80.5627 208.561C79.8631 208.661 79.8381 209.785 80.5627 209.686C84.1609 209.236 87.4842 208.061 90.5327 206.112C91.1824 205.738 90.6076 204.763 89.983 205.163Z" fill="#D67F3A"/>
<path d="M133.282 131.739L137.155 121.669C135.181 118.746 133.906 115.347 133.582 111.699C132.432 98.9057 143.127 87.4864 157.47 86.1871C171.812 84.8877 184.381 94.208 185.555 107.002C186.705 119.795 176.01 131.214 161.667 132.514C154.621 133.138 148.024 131.239 142.977 127.591L133.282 131.739Z" fill="white"/>
<g filter="url(#filter0_d)">
<path d="M165.044 103.275H154.488L155.588 120.538H163.945L165.044 103.275Z" fill="white"/>
<path d="M166.034 101.405H153.389V103.275H166.034V101.405Z" fill="#929292"/>
<path d="M165.044 100.416H154.488V101.406H165.044V100.416Z" fill="#757575"/>
<path d="M158.007 99.9762L155.368 99.4264V100.416H158.007V99.9762Z" fill="#5A5A5A"/>
<path opacity="0.5" d="M165.044 103.275L159.766 103.275V120.538H163.945L165.044 103.275Z" fill="#D9D9D9"/>
</g>
</g>
<defs>
<filter id="filter0_d" x="137.389" y="89.4264" width="44.6451" height="53.1118" filterUnits="userSpaceOnUse" color-interpolation-filters="sRGB">
<feFlood flood-opacity="0" result="BackgroundImageFix"/>
<feColorMatrix in="SourceAlpha" type="matrix" values="0 0 0 0 0 0 0 0 0 0 0 0 0 0 0 0 0 0 127 0"/>
<feOffset dy="6"/>
<feGaussianBlur stdDeviation="8"/>
<feColorMatrix type="matrix" values="0 0 0 0 0 0 0 0 0 0 0 0 0 0 0 0 0 0 0.11 0"/>
<feBlend mode="normal" in2="BackgroundImageFix" result="effect1_dropShadow"/>
<feBlend mode="normal" in="SourceGraphic" in2="effect1_dropShadow" result="shape"/>
</filter>
</defs>
</svg>
